/* XPM */
static char *result[] = {
/* columns rows colors chars-per-pixel */
"64 64 230 2 ",
"   c #622E25",
".  c #6B3426",
"X  c #7A3828",
"o  c #8C3C2B",
"O  c #E93E3A",
"+  c #E43E39",
"@  c #82521F",
"#  c #BC781E",
"$  c #84442A",
"%  c #8A452A",
"&  c #97462D",
"*  c #99412E",
"=  c #954C2D",
"-  c #994E2D",
";  c #9C562A",
":  c #A24B2C",
">  c #A3542E",
",  c #AA542F",
"<  c #AD592F",
"1  c #B25E2E",
"2  c #BB5A2E",
"3  c #AA4931",
"4  c #AE5D30",
"5  c #B55232",
"6  c #B45D30",
"7  c #BE5B32",
"8  c #BB5234",
"9  c #956D2C",
"0  c #A56829",
"q  c #BC662F",
"w  c #BD692D",
"e  c #B6612F",
"r  c #B37425",
"t  c #BB7724",
"y  c #BB7628",
"u  c #BC6231",
"i  c #BA6430",
"p  c #D37F1F",
"a  c #CA4F2F",
"s  c #C45A35",
"d  c #CA5D36",
"f  c #C05734",
"g  c #C54D32",
"h  c #EE5F2F",
"j  c #E9423A",
"k  c #EA4B3A",
"l  c #E64A38",
"z  c #EC5C3B",
"x  c #E8543B",
"c  c #C36B2D",
"v  c #CA6C2E",
"b  c #C86226",
"n  c #CB732C",
"m  c #C77C29",
"M  c #D57D26",
"N  c #D1742C",
"B  c #D47B2A",
"V  c #D87D2A",
"C  c #D97D27",
"Z  c #C36431",
"A  c #CF6237",
"S  c #CB6D33",
"D  c #C46B31",
"F  c #D16337",
"G  c #D66938",
"H  c #DA6C39",
"J  c #D56A37",
"K  c #D47433",
"L  c #DE733A",
"P  c #D87C34",
"I  c #F06E2C",
"U  c #EF6E36",
"Y  c #E5643A",
"T  c #EC643B",
"R  c #E26D3A",
"E  c #EE6D3C",
"W  c #EE6534",
"Q  c #E47E36",
"!  c #E3763B",
"~  c #EF733D",
"^  c #E57A3A",
"/  c #EC7B3C",
"(  c #EF7136",
")  c #F0763C",
"_  c #F07C3D",
"`  c #F17528",
"'  c #BC831B",
"]  c #AB862D",
"[  c #B38927",
"{  c #BE952E",
"}  c #CD8C1A",
"|  c #CA8A1E",
" . c #D68D1A",
".. c #DC931B",
"X. c #D4991B",
"o. c #DA9816",
"O. c #E5951D",
"+. c #EB9C1C",
"@. c #E49C1A",
"#. c #F59E1B",
"$. c #DDA513",
"%. c #ECBC0E",
"&. c #F2BE0C",
"*. c #E5A314",
"=. c #EDA416",
"-. c #EEAB15",
";. c #E4A51B",
":. c #ECA41B",
">. c #EDAB1B",
",. c #E4AB16",
"<. c #F2AC15",
"1. c #F2A41C",
"2. c #F4AC1A",
"3. c #F8AE1E",
"4. c #F0A616",
"5. c #ECB212",
"6. c #ECB21A",
"7. c #F5B314",
"8. c #F9B712",
"9. c #F4BA13",
"0. c #FABC14",
"q. c #F4B41A",
"w. c #FAB51C",
"e. c #F6BA1B",
"r. c #F9BA1A",
"t. c #CB8525",
"y. c #D58522",
"u. c #DB8426",
"i. c #D38B24",
"p. c #DD8A23",
"a. c #DB822B",
"s. c #DF8828",
"d. c #C29328",
"f. c #DA9724",
"g. c #DF8031",
"h. c #D99D34",
"j. c #CB8634",
"k. c #E38C23",
"l. c #E58C2B",
"z. c #E5892C",
"x. c #F48D26",
"c. c #E59322",
"v. c #E99523",
"b. c #E39B23",
"n. c #EC9A23",
"m. c #EC932B",
"M. c #ED9B2B",
"N. c #E2902E",
"B. c #F2952B",
"V. c #F49B2B",
"C. c #F29E26",
"Z. c #E68334",
"A. c #EC8A33",
"S. c #EB833A",
"D. c #EA8836",
"F. c #F28132",
"G. c #F08D34",
"H. c #F1833E",
"J. c #F28C3D",
"K. c #ED9433",
"L. c #EC9536",
"P. c #F29333",
"I. c #F59B34",
"U. c #F3933B",
"Y. c #CFA12C",
"T. c #DDAB29",
"R. c #DEB12A",
"E. c #CEA731",
"W. c #DEB633",
"Q. c #DEA535",
"!. c #E3A324",
"~. c #EBA522",
"^. c #E5AB23",
"/. c #ECAB23",
"(. c #E4AA29",
"). c #F4A425",
"_. c #F6A922",
"`. c #F8AC24",
"'. c #F6A32C",
"]. c #F7A829",
"[. c #F8A828",
"{. c #EBB225",
"}. c #E8B729",
"|. c #F3B422",
" X c #F9B021",
".X c #F4BC24",
"XX c #F3B92A",
"oX c #F6A130",
"OX c #E4B335",
"+X c #E9BA33",
"@X c #E1AA35",
"#X c #FDC50D",
"$X c #FDC90E",
"%X c #F3C513",
"&X c #FBC312",
"*X c #FDCC12",
"=X c #F4C71C",
"-X c #FAC41B",
";X c #FCCC1B",
":X c #F6CA16",
">X c #FDD116",
",X c #FED41B",
"<X c #FED81F",
"1X c #F2D01F",
"2X c #EFC42E",
"3X c #F9C423",
"4X c #FBCB21",
"5X c #F6C928",
"6X c #FDD222",
"7X c #F6D826",
"8X c #FEDC23",
"9X c #FBD42A",
"0X c #FDDC28",
"qX c #F5D828",
"wX c #EBC735",
"eX c #F9DB34",
"rX c #FBDF38",
"tX c #F8D435",
"yX c #FEE127",
"uX c #FEE32B",
"iX c #FEE82F",
"pX c #FAE134",
"aX c #FFEC34",
"sX c #FCE439",
"dX c #F6EA39",
"fX c #FBED3A",
"gX c #F4E535",
"hX c #FFF23B",
"jX c #EEE337",
"kX c None",
/* pixels */
"kXkXkXkXkXkXkXkXkXkXkXkXkXkXkXkXkXkXkXkXkXkXkXkXkXkXkXkXkXkXkXkXkXkXkXkXkXkXkXkXkXkXkXkXkXkXkXkXkXkXkXkXkXkXkXkXkXkXkXkXkXkXkXkX",
"kXkXkXkXkXkXkXkXkXkXkXkXkXkXkXkXkXkXkXkXkXkXkXkXkXkXkXkXkXkXkXkXkXkXkXkXkXkXkXkXkXkXkXkXkXkXkXkXkXkXkXkXkXkXkXkXkXkXkXkXkXkXkXkX",
"kXkXkXkXkXkXkXkXkXkXkXkXkXkXkXkXkXkXkXkXkXkXkXkXkXkXkXkXkXkXkXkXkXkXkXkXkXkXkXkXkXkXkXkXkXkXkXkXkXkXkXkXkXkXkXkXkXkXkXkXkXkXkXkX",
"kXkXkXkXkXkXkXkXkXkXkXkXkXqXkXkXkXkXkXkXkXkXkXkXkXkXkXkXkXkXkXkXkXkXkXkXkXkXkXkXkXkXkXkXkXkXkXkXkXkXkXkXkXkXkXkXkXkXkXkXkXkXkXkX",
"kXkXkXkXkXkXkXkXkXkXkXkXkXqXkXkXkXkXkXkXkXkXkXkXkXkXkXkXkXkXkXkXkXkXkXkXkXkXkXkXkXkXkXkXkXkXkXkXkXkXkXkXkXkXkXkXkXkXkXkXkXkXkXkX",
"kXkXkXkXkXkXkXkXkXkXkXkXkX8XkXkXkXkXkXkXkXkXkXkXkXkXkXkXkXkXkXkXkXkXkXkXkXkXkXkXkXkXkXkXkXkXkXkXkXkXkXkXkXkXkXkXkXkXkXkXkXkXkXkX",
"kXkXkXkXkXkXkXkXkXkXkXkXkX<XkXkXkXkXkXkXkXkXkXkXkXkXkXkXkX%X%X9.&X0.8.8.7.<.=.kXkXkXkXkXkXkXkXkXkXkXkXkXkXkXkXkXkXkXkXkXkXkXkXkX",
"kXkXkXkXkXkXkXkXkXkXkXkXkX>XdXkXkXkXkXkXkXkXkXkXkXkX7X1X,X*X*X&X#X0.8.8.7.2.4.1.+.O.kXkXkXkXkXkXkXkXkXkXkXkXkXkXkXkXkXkXkXkXkXkX",
"kXkXkXkXkXkXkXkXkXkXkXkXkX&X7XkXkXkXkXkXkXkXkXkXqX8X8X<X,X*X-X&X8.8.8.8.7.<.#.#.+.O.v.k.kXkXkXkXkXkXkXkXkXkXkXkXkXkXkXkXkXkXkXkX",
"kXkXkXkXkXkXkXkXkXkXkXkXkX#X;XkXkXkXkXkXkXkXkXuXuX8X<X,X;X*X&X&X0.9.8.7.<.4.4.#.+.O.v.k.k.u.kXkXkXkXkXkXkXkXkXkXkXkXkXkXkXkXkXkX",
"kXkXkXkXkXkXkXkXkXkXkXkXkX&X&XkXkXkXkXkXkXdXaXiXuX8X<X;X;X&X&X8.8.8.8.<.<.4.=.+.O.O.k.k.u.a.B kXkXkXkXkXkXkXkXkXkXkXkXkXkXkXkXkX",
"kXkXkXkXkXkXkXkXkXkXkXkXkX0.0.%.kXkXkXkXfXhXaXiXuX8X<X;X;X-X&X8.8.8.<.<.4.=.+.+.O.k.k.z.u.a.B B kXkXkXkXkXkXkXkXkXkXkXkXkXkXkXkX",
"kXkXkXkXkXkXkXkXkXkXkXkXkXr.w.q.kXkXkXhXhXhXaXaXuX8X,X;X-X&X9.r.8.<.<.<.4.=.+.O.O.k.p.u.u.B M n n kXkXkXkXkXkXkXkXkXkXkXkXkXkXkX",
"kXkXkXkXkXkXkXkXkXkXkXkXkXr.`._.kXkXwXfXhXhXaXuX8X9X6X-X-X-Xr.7.8.<.<.4.=.*.+.O.k.k.p.u.M B N n v c kXkXkXkXkXkXkXkXkXkXkXkXkXkX",
"kXkXkXkXkXkXkXkXkXkXkXkXkXw.].'.kXE.wXrXhXhXaXuX0X9X4X;Xr.0.8.7.<.<.4.=.=.=.O.O.k.p.p.u.M B n n c c i kXkXkXkXkXkXkXkXkXkXkXkXkX",
"kXkXkXkXkXkXkXkXkXkXkXkXkX XoXI.j.{ W.tXfXhXeX9X9X4X4X-X-Xe.7.q.<.-.=.=.+.O.O.+.>./.!.b.y.N n c c w i 1 kXkXkXkXkXkXkXkXkXkXkXkX",
"kXkXkXkXkXkXkXkXkXkXkXkXkX`.oXU.P ] E.wXsXhXeX5X5X4X4X-Xe.e.q.<.<.=.=.+.>.=X8X8XyXyXuXyXyX6X^.t.w q e 1 kXkXkXkXkXkXkXkXkXkXkXkX",
"kXkXkXkXkXkXkXkXkXkXkXkXkX].I.J.^ 9 { W.pXhXeX2X5X5X3Xr.e.q.2.<.-.=.=.:X8X8X8X8X8X8X<X<X8X<X8X<X^.w e < > kXkXkXkXkXkXkXkXkXkXkX",
"kXkXkXkXkXkXkXkXkXkXkXkXkX'.I.H.E 9 ] }.<XaXpXXX3X3X3Xe.q.q.<.-.=.-.;X,X,X,X<X,X,X,X,X,X,X,X>X,X,X:Xy < > kXkXkXkXkXkXkXkXkXkXkX",
"kXkXkXkXkXkXkXkXkXkXkXkXkX'.L._ z - [ &X*XuXpX}.|..X.Xe.q.q.-.=.7.-X;X;X*X>X>X>X>X>X>X>X>X>X>X>X;X;X:Xr > - kXkXkXkXkXkXkXkXkXkX",
"kXkXkXkXkXkXkXkXkXkXkXkXkXM.U._ j g >.&X#X8X0X(.{.XXw.|.q.-.>.-.9.r.0.&X&X*X*X*X>X>X*X*X>X$X>X>X*X*X$X%X0 - kXkXkXkXkXkXkXkXkXkX",
"kXkXkXkXkXkXkXkXkXkXkXkXkXL.J._ j W `.r.&X,X,X(.(.].|.q.>.>.=.7.q.9.9.0.&X#X&X*X$X$X*X$X$X$X$X$X*X$X$X$X,.= kXkXkXkXkXkXkXkXkXkX",
"kXkXkXkXkXkXkXkXkXkXkXkXkXL.J./ j ) oX`.r.*X*X!.!.~./.>.2.>.-.-.kXkXkXkXkXX.0.#X#X$X$X$X$X$X#X$X$X$X$X$X*Xr $ kXkXkXkXkXkXkXkXkX",
"kXkXkXkXkXkXkXkXkXkXkXkXkXL.J./ k ) I.oX_.$X*X;.b.!.~.~.>.:.*.kXkXkXkXkXkXkX@ $.#X#X$X$X#X#X$X$X#X#X#X$X#X,.$ kXkXkXkXkXkXkXkXkX",
"kXkXkXkXkXkXkXkXkXkXkXkXkXU.H.~ k ) J.H.( #X$X;.f.f.n.~.:.;.kXkXkXkXkXkXkXkXkX. p &.#X#X#X#X#X#X#X#X#X#X$X$X; kXkXkXkXkXkXkXkXkX",
"kXkXkXkXkXkXkXkXkXkXkXkXkXJ.H.E x ) ) T ) &X&X;.i.f.c.b.+.kXkXkXkXkXkXkXkXkXkX  . # 8.#X#X#X#X#X#X&X#X#X#X&X' kXkXkXkXkXkXkXkXkX",
"kXkXkXkXkXkXkXkXkXkXkXkXkXJ._ E x E E E H.r.r.:.t.y.f.O.>.kXkXkXkXkXkXkXkXkXkX  . o } 8.8.0.&X0.0.0.&X0.0.&XX.kXkXkXkXkXkXkXkXkX",
"kXkXkXkXkXkXkXkXkXkXkXkXkXH._ T z ) E ) J.`. X/.t.t.y...&XkXkXkXkXkXkXkXkXkXkX. o o : =.w.8.r.r.r.0.0.r.r.r.,.kXkXkXkXkXkXkXkXkX",
"kXkXkXkXkXkXkXkXkXkXkXkXkXS.) z E _ E H.U.[.`.].r m y.7.<XW.kXkXkXkXkXkXkXkXkXX % & : c 3.3.w.w.r.w.r.r.r.r.2.kXkXkXkXkXkXkXkXkX",
"kXkXkXkXkXkXkXkXkXkXkXkXkX/ E z _ _ ) I.I.'.'.oXr t c.&XuXh.kXkXkXkXkXkXkXkX$ % - : , 8 O.3.3.3.w.w. Xw.|.|.:.kXkXkXkXkXkXkXkXkX",
"kXkXkXkXkXkXkXkXkXkXkXkXkXH E T H._ _ oXoXoXI.I.r m `.&XhXh.1 kXkXkXkXkXkX% = - : , 1 2 C [.[.3.`.`.`. X X X_.kXkXkXkXkXkXkXkXkX",
"kXkXkXkXkXkXkXkXkXkXkXkXkX! T ) H._ G.].].'.I.U.m L.w.<XhXQ.7 2 < kXkXkX; ; > < < 1 Z A K C.C.).).[.`.`.`. XkXkXkXkXkXkXkXkXkXkX",
"kXkXkXkXkXkXkXkXkXkXkXkXkXR T H.J.^ s. X X[.J.J.H.oX&XyXhX@XZ Z Z 6 6 4 4 4 e e i Z S S K V.B.V.V.[.'.[.].].kXkXkXkXkXkXkXkXkXkX",
"kXkXkXkXkXkXkXkXkXkXkXkXkXR T J.H.B p.w.w.`.H.H.J.].&XfXhX@Xv b v v D i w i w w D S K K P M.B.B.B.B.V.V.'.'.kXkXkXkXkXkXkXkXkXkX",
"kXkXkXkXkXkXkXkXkXkXkXkXkXY ) U.a.u.c.0.0.r._ ) J. X*XhXhXOXN N N N v n n n S n K B V Z.Z.m.A.m.P.B.I.I.I.m.kXkXkXkXkXkXkXkXkXkX",
"kXkXkXkXkXkXkXkXkXkXkXkXkXT H.z.y.c.+.0.#X#X) _ I.r.8XhXhX+XN N N V V V B B V a.a.V z.z.A.m.A.A.A.G.P.G.P.kXkXkXkXkXkXkXkXkXkXkX",
"kXkXkXkXkXkXkXkXkXkXkXkXkXT K.k.c.+.1.&X$X#X) _ I.0.uXiXiX}.B C C z.z.z.s.s.s.s.k.l.m.m.V.z.Z.D.D.G.G.G.D.kXkXkXkXkXkXkXkXkXkXkX",
"kXkXkXkXkXkXkXkXkXkXkXkXkXkX..O.1.2.w.&X$X*XU H.V.I 4X8X<X{.M p.p.k.k.v.N.c.c.n.v.n.n.C.).Q ^ Q S./ D.D.kXkXkXkXkXkXkXkXkXkXkXkX",
"kXkXkXkXkXkXkXkXkXkXkXkXkXkXkX4.3.8.0.&X*X>XF._ z k _.,X>X6. .p.k.O.+.+.+.#.~.).1.).1._.~.L ! ^ ^ ^ S.kXkXkXkXkXkXkXkXkXkXkXkXkX",
"kXkXkXkXkXkXkXkXkXkXkXkXkXkXkX7.0.&X&X*X<X8XG.) E z x.$X$X-. ...O.#.1.1.2.2.2.2.2.w.w.8.l.H L ! ! ^ ! kXkXkXkXkXkXkXkXkXkXkXkXkX",
"kXkXkXkXkXkXkXkXkXkXkXkXkXkXkX#X#X#X#X>XyXuXU.H._ z ` #X$X5. .o.+.4.<.8.8.8.8.8.0.0.0.8.J J H H ! H kXkXkXkXkXkXkXkXkXkXkXkXkXkX",
"kXkXkXkXkXkXkXkXkXkXkXkXkXkXkX$X#X#X$X>XaXaXU.J.J.z h #X#X5. .o.*.4.<.8.0.#X#X#X$X#X$Xp.A F G G G kXkXkXkXkXkXkXkXkXkXkXkXkXkXkX",
"kXkXkXkXkXkXkXkXkXkXkXkXkXkXkX$X#X$X#X$XhXsXI.I.U.z k r.r.-.} o.*.-.&.8.#X#X$X$X$X$X@.s d d F F kXkXkXkXkXkXkXkXkXkXkXkXkXkXkXkX",
"kXkXkXkXkXkXkXkXkXkXkXkXkXkX%.$X$X$X$X$XhXtX].'.l.a j `.w.>.} o.*.-.8.8.*X*X*X*X*X;.7 7 s d s kXkXkXkXkXkXkXkXkXkXkXkXkXkXkXkXkX",
"kXkXkXkXkXkXkXkXkXkXkXkXkXkX%X$X*X$X$X$XaX9X X_.t b O V.`.:.d.f.;.>.e.-X:X>X>X,Xf.5 8 8 8 kXkXkXkXkXkXkXkXkXkXkXkXkXkXkXkXkXkXkX",
"kXkXkXkXkXkXkXkXkXkXkXkXkXkX%X*X*X*X*X*XuX;Xr...| y.O ` '.!.d.f.T.{.2X4X6X7X5Xy : 3 3 kXkXkXkXkXkXkXkXkXkXkXkXkXkXkXkXkXkXkXkXkX",
"kXkXkXkXkXkXkXkXkXkXkXkXkXkX>X>X*X>X*X*XuX*X-...@...j U oXK.d.E.T.}.2X5XR.y & * * kXkXkXkXkXkXkXkXkXkXkXkXkXkXkXkXkXkXkXkXkXkXkX",
"kXkXkXkXkXkXkXkXkXkXkXkXkXkX,X,X,X>X,X*X0X:X>.-.-.;.x ~ U.L.kXkX{ [ 9 % kXkXkXkXkXkXkXkXkXkXkXkXkXkXkXkXkXkXkXkXkXkXkXkXkXkXkXkX",
"kXkXkXkXkXkXkXkXkXkXkXkXkXkX<X<X<X,X,X,X<Xe.e.r.r.M.! ~ J.J.kXkXkXkXkXkXkXkXkXkXkXkXkXkXkXkXkXkXkXkXkXkXkXkXkXkXkXkXkXkXkXkXkXkX",
"kXkXkXkXkXkXkXkXkXkXkXkXkX7XyX8X<X<X<X<X,X,X;X,X,Xl.^ _ H./ kXkXkXkXkXkXkXkXkXkXkXkXkXkXkXkXkXkXkXkXkXkXkXkXkXkXkXkXkXkXkXkXkXkX",
"kXkXkXkXkXkXkXkXkXkXkXkXkXuXuXyXyXyXyXyX8X8X8X<X3XZ.Q J._ / kXkXkXkXkXkXkXkXkXkXkXkXkXkXkXkXkXkXkXkXkXkXkXkXkXkXkXkXkXkXkXkXkXkX",
"kXkXkXkXkXkXkXkXkXkXkXkXgXaXaXiXiXuXyXyX0X8X8X8XM.A.Z.K._ R kXkXkXkXkXkXkXkXkXkXkXkXkXkXkXkXkXkXkXkXkXkXkXkXkXkXkXkXkXkXkXkXkXkX",
"kXkXkXkXkXkXkXkXkXkXkXkXhXfXfXaXaXaXaXiXuXuXuXXXV.m.z.kXF.Y kXkXkXkXkXkXkXkXkXkXkXkXkXkXkXkXkXkXkXkXkXkXkXkXkXkXkXkXkXkXkXkXkXkX",
"kXkXkXkXkXkXkXkXkXkXkXfXhXhXhXhXhXhXfXaXaXaX3XC.C.V.kXkXx.l kXkXkXkXkXkXkXkXkXkXkXkXkXkXkXkXkXkXkXkXkXkXkXkXkXkXkXkXkXkXkXkXkXkX",
"kXkXkXkXkXkXkXkXkXkXkXhXhXhXhXhXhXhXhXhXaX3X2.3.).kXkXkX1.+ kXkXkXkXkXkXkXkXkXkXkXkXkXkXkXkXkXkXkXkXkXkXkXkXkXkXkXkXkXkXkXkXkXkX",
"kXkXkXkXkXkXkXkXkXkXhXhXhXhXhXhXhXhXhX8X&Xr.r.w.:.kXkXkX<.O kXkXkXkXkXkXkXkXkXkXkXkXkXkXkXkXkXkXkXkXkXkXkXkXkXkXkXkXkXkXkXkXkXkX",
"kXkXkXkXkXkXkXkXkXhXhXhXhXhXhXhXfXyX*X$X$X#X0.kXkXkXkXkX=Xj kXkXkXkXkXkXkXkXkXkXkXkXkXkXkXkXkXkXkXkXkXkXkXkXkXkXkXkXkXkXkXkXkXkX",
"kXkXkXkXkXkXkXkXhXhXhXhXhXhXiXyX>X*X$X$X#X&.kXkXkXkXkXkXkXT kXkXkXkXkXkXkXkXkXkXkXkXkXkXkXkXkXkXkXkXkXkXkXkXkXkXkXkXkXkXkXkXkXkX",
"kXkXkXkXkXkXjXhXhXhXhXhXfXaXuX8X,X:X%XkXkXkXkXkXkXkXkXkXkX_ kXkXkXkXkXkXkXkXkXkXkXkXkXkXkXkXkXkXkXkXkXkXkXkXkXkXkXkXkXkXkXkXkXkX",
"kXkXkXkXkXkXkXkXkXkXkXkXkXkXkXkXkXkXkXkXkXkXkXkXkXkXkXkXkXD.kXkXkXkXkXkXkXkXkXkXkXkXkXkXkXkXkXkXkXkXkXkXkXkXkXkXkXkXkXkXkXkXkXkX",
"kXkXkXkXkXkXkXkXkXkXkXkXkXkXkXkXkXkXkXkXkXkXkXkXkXkXkXkXkXD.kXkXkXkXkXkXkXkXkXkXkXkXkXkXkXkXkXkXkXkXkXkXkXkXkXkXkXkXkXkXkXkXkXkX",
"kXkXkXkXkXkXkXkXkXkXkXkXkXkXkXkXkXkXkXkXkXkXkXkXkXkXkXkXkXkXkXkXkXkXkXkXkXkXkXkXkXkXkXkXkXkXkXkXkXkXkXkXkXkXkXkXkXkXkXkXkXkXkXkX",
"kXkXkXkXkXkXkXkXkXkXkXkXkXkXkXkXkXkXkXkXkXkXkXkXkXkXkXkXkXkXkXkXkXkXkXkXkXkXkXkXkXkXkXkXkXkXkXkXkXkXkXkXkXkXkXkXkXkXkXkXkXkXkXkX",
"kXkXkXkXkXkXkXkXkXkXkXkXkXkXkXkXkXkXkXkXkXkXkXkXkXkXkXkXkXkXkXkXkXkXkXkXkXkXkXkXkXkXkXkXkXkXkXkXkXkXkXkXkXkXkXkXkXkXkXkXkXkXkXkX"
};
