/* XPM */
static char *result[] = {
/* columns rows colors chars-per-pixel */
"16 16 103 2 ",
"   c #934B2B",
".  c #AD552E",
"X  c #B3552F",
"o  c #BC7E20",
"O  c #C0682D",
"+  c #C46D2E",
"@  c #C86D2E",
"#  c #D17929",
"$  c #D87F28",
"%  c #D06437",
"&  c #D37630",
"*  c #E2762A",
"=  c #EE7E2E",
"-  c #EB6D3C",
";  c #EE6C3C",
":  c #EC793B",
">  c #EF7C3D",
",  c #C4801C",
"<  c #E99C1A",
"1  c #E5A516",
"2  c #E6AD15",
"3  c #ECA71A",
"4  c #EEAB18",
"5  c #F2AB14",
"6  c #F0AE14",
"7  c #F0A518",
"8  c #F5AF1F",
"9  c #EAB513",
"0  c #F7B512",
"q  c #F3B417",
"w  c #F7B516",
"e  c #F7BA10",
"r  c #F5BB15",
"t  c #F8BB17",
"y  c #F3B118",
"u  c #CE8A26",
"i  c #CA8B2E",
"p  c #DA9123",
"a  c #DB9722",
"s  c #DE9B2A",
"d  c #DF9F32",
"f  c #EF802E",
"g  c #EB8E2E",
"h  c #E19123",
"j  c #E79221",
"k  c #E69222",
"l  c #E89426",
"z  c #EB9A21",
"x  c #F3982E",
"c  c #F59B2C",
"v  c #E68333",
"b  c #E98139",
"n  c #EF8A3A",
"m  c #F1833A",
"M  c #ED9330",
"N  c #F39833",
"B  c #D6A024",
"V  c #DEA730",
"C  c #E7A520",
"Z  c #E0AE25",
"A  c #EDAB22",
"S  c #F0A021",
"D  c #F2A322",
"F  c #F3A721",
"G  c #F7A527",
"H  c #F6AC23",
"J  c #F6A229",
"K  c #F9B020",
"L  c #F9BC2B",
"P  c #F6A030",
"I  c #F9BE35",
"U  c #FDC80E",
"Y  c #FCC90F",
"T  c #FDC90F",
"R  c #FDCA0F",
"E  c #F6C113",
"W  c #FCC310",
"Q  c #FCC012",
"!  c #FCC112",
"~  c #FBC516",
"^  c #FDCD13",
"/  c #F6C11B",
"(  c #F5C01F",
")  c #F8CE1E",
"_  c #FBD018",
"`  c #FCD31D",
"'  c #FCD21F",
"]  c #FED81F",
"[  c #F8C222",
"{  c #FBC925",
"}  c #FCD222",
"|  c #FDDA22",
" . c #FEDC23",
".. c #F9D92F",
"X. c #E5C235",
"o. c #FCE028",
"O. c #FCE932",
"+. c #FBEA34",
"@. c #FEEB35",
"#. c #FFEF37",
"$. c #FCF03A",
"%. c #FFF23A",
"&. c None",
/* pixels */
"&.&.&.&.&.&.&.&.&.&.&.&.&.&.&.&.",
"&.&.&.&.&.&.&.&.e &.&.&.&.&.&.&.",
"&.&.&.E &.+.| ~ 0 7 k $ &.&.&.&.",
"&.&.&.H X.@.} t 5 < h # O &.&.&.",
"&.&.&.N i ..[ y q ` ] ) u &.&.&.",
"&.&.&.n f / A 4 r 9 T R Y o &.&.",
"&.&.&.> ; F p &.&.&., Q ! 2 &.&.",
"&.&.&.- m P a V &.  . D K 8 &.&.",
"&.&.&.: l c L d @ + & g x &.&.&.",
"&.&.&.&.w G J C j z S v b &.&.&.",
"&.&.&.&.U I = 1 6 W 3 % &.&.&.&.",
"&.&.&.&.^ ( * s Z B X &.&.&.&.&.",
"&.&.&.o. .' M &.&.&.&.&.&.&.&.&.",
"&.&.&.%.#.{ &.&.&.&.&.&.&.&.&.&.",
"&.&.$.O._ &.&.&.&.&.&.&.&.&.&.&.",
"&.&.&.&.&.&.&.&.&.&.&.&.&.&.&.&."
};
