/* XPM */
static char *result[] = {
/* columns rows colors chars-per-pixel */
"32 32 161 2 ",
"   c #612E25",
".  c #843A29",
"X  c #BA7B1A",
"o  c #814029",
"O  c #96452D",
"+  c #994F2C",
"@  c #9E512E",
"#  c #AC572F",
"$  c #B2572D",
"%  c #B25E2F",
"&  c #BA5A2E",
"*  c #B44E33",
"=  c #BE5F31",
"-  c #AD6927",
";  c #B6622F",
":  c #B8622E",
">  c #BB7824",
",  c #B57B2A",
"<  c #B96430",
"1  c #BE7C33",
"2  c #C35F35",
"3  c #CA5E36",
"4  c #E14D37",
"5  c #EB5D3A",
"6  c #C5662F",
"7  c #C46C2D",
"8  c #CA6A2F",
"9  c #C97720",
"0  c #CC752C",
"q  c #C6792A",
"w  c #CB7F2D",
"e  c #D87E25",
"r  c #D1752C",
"t  c #D37B2A",
"y  c #D87D2D",
"u  c #C36931",
"i  c #D36737",
"p  c #DA6B39",
"a  c #D07033",
"s  c #ED7029",
"d  c #F27D29",
"f  c #EE6533",
"g  c #ED643C",
"h  c #EE6B3C",
"j  c #E37335",
"k  c #EB7033",
"l  c #EC7A32",
"z  c #E0763A",
"x  c #EE753D",
"c  c #E47B3B",
"v  c #EF783D",
"b  c #F07A3C",
"n  c #D58B1E",
"m  c #DA8A1E",
"M  c #CF9719",
"N  c #D89317",
"B  c #D39319",
"V  c #E9961D",
"C  c #E79B1C",
"Z  c #EB9C1C",
"A  c #F6981D",
"S  c #D7A014",
"D  c #F9BF0D",
"F  c #EDA615",
"G  c #E4AD14",
"H  c #EEAB16",
"J  c #E7A11B",
"K  c #EBA419",
"L  c #EDA81B",
"P  c #F1A716",
"I  c #F3AD14",
"U  c #F1A31C",
"Y  c #F3AC1C",
"T  c #EDB81C",
"R  c #F5B314",
"E  c #F5BA13",
"W  c #FABC13",
"Q  c #F4B31B",
"!  c #FAB41C",
"~  c #F5BC1B",
"^  c #FABE19",
"/  c #C58125",
"(  c #CA8525",
")  c #DC8625",
"_  c #DC8328",
"`  c #CC9621",
"'  c #C4982B",
"]  c #DC9223",
"[  c #C79430",
"{  c #E18626",
"}  c #E38D24",
"|  c #E2852F",
" . c #E58D29",
".. c #E98D2E",
"X. c #E69322",
"o. c #EB9527",
"O. c #E59C21",
"+. c #EB9F22",
"@. c #EB912C",
"#. c #EE9B2C",
"$. c #F69B26",
"%. c #F1972A",
"&. c #F49B2C",
"*. c #E58333",
"=. c #EB8537",
"-. c #EC8A35",
";. c #E78138",
":. c #EE8639",
">. c #F1833D",
",. c #F38B3C",
"<. c #F39533",
"1. c #F49B35",
"2. c #D0A420",
"3. c #D2A42C",
"4. c #D6AE32",
"5. c #E4A125",
"6. c #E4AC21",
"7. c #EEAC23",
"8. c #F4A526",
"9. c #F5AC23",
"0. c #F8AE23",
"q. c #F6A32C",
"w. c #EBB723",
"e. c #F6B020",
"r. c #F5BD25",
"t. c #F9BF27",
"y. c #F6A030",
"u. c #F5C00F",
"i. c #FCC40E",
"p. c #FDC80D",
"a. c #F6C114",
"s. c #FBC413",
"d. c #FCCC13",
"f. c #FAC31A",
"g. c #F7CA1E",
"h. c #FBCC1C",
"j. c #FDD116",
"k. c #FED31B",
"l. c #FED81F",
"z. c #EEC52C",
"x. c #F2C123",
"c. c #F4CC27",
"v. c #FBCC23",
"b. c #FDD523",
"n. c #FDDC24",
"m. c #FDDC29",
"M. c #EDCA37",
"N. c #F4CC30",
"B. c #F5D334",
"V. c #FCDF30",
"C. c #F1D038",
"Z. c #FEE027",
"A. c #FDE42C",
"S. c #F6E533",
"D. c #FEE734",
"F. c #FFEB33",
"G. c #F7E238",
"H. c #F6EB39",
"J. c #FBED39",
"K. c #FFF23A",
"L. c None",
/* pixels */
"L.L.L.L.L.L.L.L.L.L.L.L.L.L.L.L.L.L.L.L.L.L.L.L.L.L.L.L.L.L.L.L.",
"L.L.L.L.L.L.L.L.L.L.L.L.L.L.L.L.L.L.L.L.L.L.L.L.L.L.L.L.L.L.L.L.",
"L.L.L.L.L.L.b.L.L.L.L.L.L.L.L.L.L.L.L.L.L.L.L.L.L.L.L.L.L.L.L.L.",
"L.L.L.L.L.L.j.L.L.L.L.L.L.L.d.a.W D I L L.L.L.L.L.L.L.L.L.L.L.L.",
"L.L.L.L.L.L.u.L.L.L.L.L.n.b.d.s.W R I P V } _ L.L.L.L.L.L.L.L.L.",
"L.L.L.L.L.L.E a.L.L.J.F.Z.k.f.W E I P Z V } _ t L.L.L.L.L.L.L.L.",
"L.L.L.L.L.L.R 0.L.G.K.D.n.b.^ ~ R P F V } ) e 0 7 L.L.L.L.L.L.L.",
"L.L.L.L.L.L.Q q.[ M.K.V.m.f.^ E I P Z V C ] t 0 7 : L.L.L.L.L.L.",
"L.L.L.L.L.L.L.1.1 4.J.N.c.x.^ I H I g.n.n.n.m.w.q % L.L.L.L.L.L.",
"L.L.L.L.L.L.L.,.2 2.m.N.r.f.Q P Q h.j.j.k.j.j.j.h./ @ L.L.L.L.L.",
"L.L.L.L.L.L.L.,.4 Q h.x.7.e.H H ~ W s.d.d.d.d.d.p.d.- L.L.L.L.L.",
"L.L.L.L.L.L.L.>.5 q.^ ~ 5.7.L H L.L.L.S p.p.p.p.p.p.G L.L.L.L.L.",
"L.L.L.L.L.L.L.b g b $.E ] O.J L.L.L.L.  X i.p.i.p.p.p.L.L.L.L.L.",
"L.L.L.L.L.L.L.h h h &.Q ( ] ~ L.L.L.L.L.. n W W W W ^ M L.L.L.L.",
"L.L.L.L.L.L.L.h v >.1.q.> K z.L.L.L.L.o O $ U ! ! ! ! L.L.L.L.L.",
"L.L.L.L.L.L.L.h b <.q.1.w f.M.& L.L.+ @ # 2  .q.0.0.0.L.L.L.L.L.",
"L.L.L.L.L.L.L.x ;.+.0.,.1.b.N.6 6 < ; < 6 a | %.$.q.8.L.L.L.L.L.",
"L.L.L.L.L.L.L.:.) Y W b 8.A.C.0 r r 0 0 y | ..-.<.<.<.L.L.L.L.L.",
"L.L.L.L.L.L.L.X.Z W p.b $.m.c._ {  .X. .o.o.@.c =.-.L.L.L.L.L.L.",
"L.L.L.L.L.L.L.F W s.k.b 5 ! E m V U U Y Y ! | z c c L.L.L.L.L.L.",
"L.L.L.L.L.L.L.D p.s.D.,.v A W N K R W D i.R i p p L.L.L.L.L.L.L.",
"L.L.L.L.L.L.L.i.p.p.F.y.p d Q B F E s.d.a.6 3 3 L.L.L.L.L.L.L.L.",
"L.L.L.L.L.L.L.d.d.d.m.Y 9 f 8.` J x.l.T : * L.L.L.L.L.L.L.L.L.L.",
"L.L.L.L.L.L.L.j.j.h.k.K C 5 1.' 3.3., O L.L.L.L.L.L.L.L.L.L.L.L.",
"L.L.L.L.L.L.L.n.l.k.h.f.e.c ,.L.L.L.L.L.L.L.L.L.L.L.L.L.L.L.L.L.",
"L.L.L.L.L.L.D.A.A.Z.n.n.#.-.x L.L.L.L.L.L.L.L.L.L.L.L.L.L.L.L.L.",
"L.L.L.L.L.L.K.K.J.F.F.t.%.L.k L.L.L.L.L.L.L.L.L.L.L.L.L.L.L.L.L.",
"L.L.L.L.L.K.K.K.K.F.h.! L.L.s L.L.L.L.L.L.L.L.L.L.L.L.L.L.L.L.L.",
"L.L.L.L.K.K.K.F.n.p.i.L.L.L.l L.L.L.L.L.L.L.L.L.L.L.L.L.L.L.L.L.",
"L.L.L.L.J.H.S.n.L.L.L.L.L.L.L.L.L.L.L.L.L.L.L.L.L.L.L.L.L.L.L.L.",
"L.L.L.L.L.L.L.L.L.L.L.L.L.L.L.L.L.L.L.L.L.L.L.L.L.L.L.L.L.L.L.L.",
"L.L.L.L.L.L.L.L.L.L.L.L.L.L.L.L.L.L.L.L.L.L.L.L.L.L.L.L.L.L.L.L."
};
